<svg id="Layer_1" data-name="Layer 1" xmlns="http://www.w3.org/2000/svg"
    viewBox="0 0 715.69 143.36">
    <defs>
        <style>
            .cls-1,.cls-3{fill:#fff;}.cls-2{fill:none;stroke:#000;stroke-linecap:round;stroke-linejoin:round;stroke-width:5px;}.cls-3{font-size:82.36px;font-family:SafetyMedium,
            Safety;}
        </style>
    </defs>
    <path class="cls-1"
        d="M503.13,345.68a3.59,3.59,0,0,1,2.49,1,94.81,94.81,0,0,0,25.21,17.16,92.9,92.9,0,0,0,32.38,8.44,3.88,3.88,0,0,1,3.45,4.18,142.19,142.19,0,0,1-12.83,50.92,139.86,139.86,0,0,1-48.68,57,3.59,3.59,0,0,1-4.09-.06,146.83,146.83,0,0,1-48.38-58.17,149.13,149.13,0,0,1-13.11-50.08,3.9,3.9,0,0,1,3.23-4.23,118,118,0,0,0,30.91-8.82,119.83,119.83,0,0,0,27.16-16.58,3.53,3.53,0,0,1,2.26-.8m0-2a5.58,5.58,0,0,0-3.52,1.25,118.18,118.18,0,0,1-26.71,16.3,116,116,0,0,1-30.38,8.67,5.89,5.89,0,0,0-4.94,6.38A151.85,151.85,0,0,0,450.86,427a148.87,148.87,0,0,0,49,59,5.57,5.57,0,0,0,6.37.08,142,142,0,0,0,49.38-57.85,144.85,144.85,0,0,0,13-51.64,5.85,5.85,0,0,0-5.29-6.29A91.19,91.19,0,0,1,531.67,362,93.54,93.54,0,0,1,507,345.23a5.58,5.58,0,0,0-3.86-1.55Z"
        transform="translate(-414.64 -343.68)" />
    <path class="cls-1"
        d="M503.07,477.52a.06.06,0,0,0,.07,0A121.42,121.42,0,0,0,548,426.36a124.35,124.35,0,0,0,11.33-49.26,77.8,77.8,0,0,1-31.8-7.27,80,80,0,0,1-24.11-17.36,101,101,0,0,1-26.08,16.68A99.07,99.07,0,0,1,447,377.09a.09.09,0,0,0-.09.11,129.9,129.9,0,0,0,11.65,48.14A127.06,127.06,0,0,0,503.07,477.52Z"
        transform="translate(-414.64 -343.68)" />
    <polyline class="cls-2" points="66.58 65.39 87.81 83.8 112.7 44.34" />
    <path
        d="M446,434c-7.27.66-14.54,1.27-21.75,2.37-2.73.52-5.79.77-8.1,2,.07,0,0-.32,0-.32,3.4,1.52,7.61,1.56,11.37,2.05,9.65.89,19.38,1.23,29.07,1.57,18.85.36,39.49.88,58.32.46,13.53-.29,30.27-.3,43.72-1,4.85-.24,9.69-.56,14.51-1,3.79-.49,8-.5,11.41-2.05a.38.38,0,0,1,0,.11.31.31,0,0,0,0,.21c.1.13-.1-.11-.32-.19-4.66-1.8-10-2.1-15-2.8-4.83-.53-9.67-1-14.52-1.42,7.3.17,14.61.49,21.89,1.25,2.74.37,5.6.54,8.27,1.63a2.06,2.06,0,0,1,1.06,1c.4,1.18-.83,1.82-1.68,2.14-8.29,2.45-17,2.69-25.53,3.5-8.09.67-21,1.1-29.21,1.28-18.85.58-39.63.78-58.46.07-8.53-.28-20.8-.65-29.21-1.36-4.87-.37-9.73-.77-14.59-1.38-4-.66-8.2-.79-11.91-2.62a1.56,1.56,0,0,1-.74-1.11c-.06-.78.77-1.35,1.19-1.51,5-1.73,10.34-1.72,15.56-2.22,4.86-.34,9.73-.52,14.6-.63Z"
        transform="translate(-414.64 -343.68)" />
    <path
        d="M542.8,448.56a134.93,134.93,0,0,1,14.9.88c1.38.26,5,.48,4.07,2.43a2.14,2.14,0,0,1-.95.69c-3.32,1.19-6.56,1.39-10,1.87-6.61.74-13.22,1.17-19.86,1.45-14.36.79-35.22.75-49.66.4-12.43-.54-25-.75-37.22-3.06-1.24-.32-4.08-.83-3-2.57,1.23-1,2.95-1,4.43-1.28a140,140,0,0,1,14.9-.84c-3.29.36-6.58.73-9.85,1.16-2.79.49-5.83.64-8.38,1.86h0s0,0,.08-.13a.46.46,0,0,0,0-.26c0-.09,0-.08,0-.12,2.89,1.06,6.4,1.09,9.52,1.39,9.87.68,19.77.85,29.66,1,14.43.16,35.17.21,49.52-.18,6.58-.14,13.19-.32,19.76-.78a50,50,0,0,0,9.91-1.35c-.11.13,0,.46,0,.41-2.42-1.19-5.34-1.33-8-1.8-3.27-.44-6.56-.82-9.85-1.18Z"
        transform="translate(-414.64 -343.68)" />
    <path
        d="M533.54,464.06c4.53.07,9.1,0,13.56.91a2,2,0,0,1,1.38.84,1,1,0,0,1-.28,1.14,2.53,2.53,0,0,1-.61.37,37.57,37.57,0,0,1-7.77,1.51c-5.14.61-10.27,1-15.43,1.2-11.15.66-27.35.63-38.57.34-9-.37-18.06-.69-27-2.13-1.31-.31-5.6-.68-4.36-2.66,1-.86,2.36-.82,3.54-1a101.94,101.94,0,0,1,11.59-.51c-4.63.72-9.74.86-14,2.45a.51.51,0,0,0,0-.61,34.37,34.37,0,0,0,7.29,1c17,.95,36.63.78,53.76.69,8.93-.13,17.89-.18,26.8-1a16.4,16.4,0,0,0,3.82-.71s0,0,0,.05l0,.07c-.13.15,0,.52.07.49-1.81-.87-4.08-1-6.1-1.4-2.53-.38-5.08-.7-7.63-1Z"
        transform="translate(-414.64 -343.68)" />
    <text class="cls-3" transform="translate(201.6 94.94)">SAFE ZONE</text>
</svg>